# xmcd
#
# Track frame offsets:
#	150
#	15023
#	29948
#	45845
#	61980
#	80530
#	102849
#	121230
#	137628
#	149755
#	166673
#
# Disc length: 2462 seconds
#
# Revision: 1
# Processed by: cddbd v1.5.2PL0 Copyright (c) Steve Scherf et al.
# Submitted via: EasyCDDAExtractor 5.0.7
#
DISCID=88099c0b
DTITLE=The Country Dance Kings - The Very Best Country Hits
DYEAR=2007
DGENRE=country
TTITLE0=Summertime
TTITLE1=Before He Cheats
TTITLE2=What Hurts the Most
TTITLE3=Something More
TTITLE4=When I Get to Where I'm Going
TTITLE5=Believe
TTITLE6=My Wish
TTITLE7=My Little Girl
TTITLE8=I Don't Feel Like Loving You Today
TTITLE9=Jesus Take the Wheel
TTITLE10=You Save Me
EXTD=
EXTT0=
EXTT1=
EXTT2=
EXTT3=
EXTT4=
EXTT5=
EXTT6=
EXTT7=
EXTT8=
EXTT9=
EXTT10=
PLAYORDER=
